<mxfile host="app.diagrams.net" agent="Mozilla/5.0 (Windows NT 10.0; Win64; x64) AppleWebKit/537.36 (KHTML, like Gecko) Chrome/130.0.0.0 Safari/537.36" version="24.8.6">
  <diagram id="C5RBs43oDa-KdzZeNtuy" name="Page-1">
    <mxGraphModel dx="1434" dy="686" grid="1" gridSize="10" guides="1" tooltips="1" connect="1" arrows="1" fold="1" page="1" pageScale="1" pageWidth="827" pageHeight="1169" math="0" shadow="0">
      <root>
        <mxCell id="WIyWlLk6GJQsqaUBKTNV-0" />
        <mxCell id="WIyWlLk6GJQsqaUBKTNV-1" parent="WIyWlLk6GJQsqaUBKTNV-0" />
        <mxCell id="vDQ_rxtfvv9CpdEsePrf-12" value="" style="edgeStyle=orthogonalEdgeStyle;rounded=0;orthogonalLoop=1;jettySize=auto;html=1;" edge="1" parent="WIyWlLk6GJQsqaUBKTNV-1" source="vDQ_rxtfvv9CpdEsePrf-0" target="vDQ_rxtfvv9CpdEsePrf-11">
          <mxGeometry relative="1" as="geometry" />
        </mxCell>
        <mxCell id="vDQ_rxtfvv9CpdEsePrf-0" value="begin Game::initialize(level)" style="strokeWidth=2;html=1;shape=mxgraph.flowchart.start_1;whiteSpace=wrap;fillColor=#f8cecc;strokeColor=#b85450;" vertex="1" parent="WIyWlLk6GJQsqaUBKTNV-1">
          <mxGeometry x="70" y="70" width="170" height="60" as="geometry" />
        </mxCell>
        <mxCell id="vDQ_rxtfvv9CpdEsePrf-6" value="" style="edgeStyle=orthogonalEdgeStyle;rounded=0;orthogonalLoop=1;jettySize=auto;html=1;" edge="1" parent="WIyWlLk6GJQsqaUBKTNV-1" source="vDQ_rxtfvv9CpdEsePrf-1" target="vDQ_rxtfvv9CpdEsePrf-4">
          <mxGeometry relative="1" as="geometry" />
        </mxCell>
        <mxCell id="vDQ_rxtfvv9CpdEsePrf-1" value="begin Game::update()" style="strokeWidth=2;html=1;shape=mxgraph.flowchart.start_1;whiteSpace=wrap;fillColor=#f8cecc;strokeColor=#b85450;" vertex="1" parent="WIyWlLk6GJQsqaUBKTNV-1">
          <mxGeometry x="364" y="70" width="100" height="60" as="geometry" />
        </mxCell>
        <mxCell id="vDQ_rxtfvv9CpdEsePrf-23" value="" style="edgeStyle=orthogonalEdgeStyle;rounded=0;orthogonalLoop=1;jettySize=auto;html=1;" edge="1" parent="WIyWlLk6GJQsqaUBKTNV-1" source="vDQ_rxtfvv9CpdEsePrf-2" target="vDQ_rxtfvv9CpdEsePrf-21">
          <mxGeometry relative="1" as="geometry" />
        </mxCell>
        <mxCell id="vDQ_rxtfvv9CpdEsePrf-2" value="begin Game::cleanup()" style="strokeWidth=2;html=1;shape=mxgraph.flowchart.start_1;whiteSpace=wrap;fillColor=#f8cecc;strokeColor=#b85450;" vertex="1" parent="WIyWlLk6GJQsqaUBKTNV-1">
          <mxGeometry x="620" y="70" width="100" height="60" as="geometry" />
        </mxCell>
        <mxCell id="vDQ_rxtfvv9CpdEsePrf-8" value="" style="edgeStyle=orthogonalEdgeStyle;rounded=0;orthogonalLoop=1;jettySize=auto;html=1;" edge="1" parent="WIyWlLk6GJQsqaUBKTNV-1" source="vDQ_rxtfvv9CpdEsePrf-3" target="vDQ_rxtfvv9CpdEsePrf-5">
          <mxGeometry relative="1" as="geometry" />
        </mxCell>
        <mxCell id="vDQ_rxtfvv9CpdEsePrf-3" value="Graphics::render()" style="verticalLabelPosition=middle;verticalAlign=middle;html=1;shape=process;whiteSpace=wrap;rounded=1;size=0.14;arcSize=6;labelPosition=center;align=center;fillColor=#b0e3e6;strokeColor=#0e8088;" vertex="1" parent="WIyWlLk6GJQsqaUBKTNV-1">
          <mxGeometry x="324" y="270" width="180" height="60" as="geometry" />
        </mxCell>
        <mxCell id="vDQ_rxtfvv9CpdEsePrf-7" value="" style="edgeStyle=orthogonalEdgeStyle;rounded=0;orthogonalLoop=1;jettySize=auto;html=1;" edge="1" parent="WIyWlLk6GJQsqaUBKTNV-1" source="vDQ_rxtfvv9CpdEsePrf-4" target="vDQ_rxtfvv9CpdEsePrf-3">
          <mxGeometry relative="1" as="geometry" />
        </mxCell>
        <mxCell id="vDQ_rxtfvv9CpdEsePrf-4" value="Logic::updateLogic();" style="verticalLabelPosition=middle;verticalAlign=middle;html=1;shape=process;whiteSpace=wrap;rounded=1;size=0.14;arcSize=6;labelPosition=center;align=center;fillColor=#b0e3e6;strokeColor=#0e8088;" vertex="1" parent="WIyWlLk6GJQsqaUBKTNV-1">
          <mxGeometry x="324" y="170" width="180" height="60" as="geometry" />
        </mxCell>
        <mxCell id="vDQ_rxtfvv9CpdEsePrf-28" value="" style="edgeStyle=orthogonalEdgeStyle;rounded=0;orthogonalLoop=1;jettySize=auto;html=1;" edge="1" parent="WIyWlLk6GJQsqaUBKTNV-1" source="vDQ_rxtfvv9CpdEsePrf-5" target="vDQ_rxtfvv9CpdEsePrf-27">
          <mxGeometry relative="1" as="geometry" />
        </mxCell>
        <mxCell id="vDQ_rxtfvv9CpdEsePrf-5" value="UIManager::renderUI();" style="verticalLabelPosition=middle;verticalAlign=middle;html=1;shape=process;whiteSpace=wrap;rounded=1;size=0.14;arcSize=6;labelPosition=center;align=center;fillColor=#b0e3e6;strokeColor=#0e8088;" vertex="1" parent="WIyWlLk6GJQsqaUBKTNV-1">
          <mxGeometry x="324" y="370" width="180" height="60" as="geometry" />
        </mxCell>
        <mxCell id="vDQ_rxtfvv9CpdEsePrf-9" value="return" style="strokeWidth=2;html=1;shape=mxgraph.flowchart.start_1;whiteSpace=wrap;fillColor=#f8cecc;strokeColor=#b85450;" vertex="1" parent="WIyWlLk6GJQsqaUBKTNV-1">
          <mxGeometry x="364" y="555" width="100" height="60" as="geometry" />
        </mxCell>
        <mxCell id="vDQ_rxtfvv9CpdEsePrf-14" value="" style="edgeStyle=orthogonalEdgeStyle;rounded=0;orthogonalLoop=1;jettySize=auto;html=1;" edge="1" parent="WIyWlLk6GJQsqaUBKTNV-1" source="vDQ_rxtfvv9CpdEsePrf-11" target="vDQ_rxtfvv9CpdEsePrf-13">
          <mxGeometry relative="1" as="geometry" />
        </mxCell>
        <mxCell id="vDQ_rxtfvv9CpdEsePrf-11" value="Game::currentLevel = new Level(level);" style="verticalLabelPosition=middle;verticalAlign=middle;html=1;shape=process;whiteSpace=wrap;rounded=1;size=0.14;arcSize=6;labelPosition=center;align=center;fillColor=#b0e3e6;strokeColor=#0e8088;" vertex="1" parent="WIyWlLk6GJQsqaUBKTNV-1">
          <mxGeometry x="65" y="170" width="180" height="60" as="geometry" />
        </mxCell>
        <mxCell id="vDQ_rxtfvv9CpdEsePrf-13" value="return" style="strokeWidth=2;html=1;shape=mxgraph.flowchart.start_1;whiteSpace=wrap;fillColor=#f8cecc;strokeColor=#b85450;" vertex="1" parent="WIyWlLk6GJQsqaUBKTNV-1">
          <mxGeometry x="105" y="270" width="100" height="60" as="geometry" />
        </mxCell>
        <mxCell id="vDQ_rxtfvv9CpdEsePrf-19" value="return" style="strokeWidth=2;html=1;shape=mxgraph.flowchart.start_1;whiteSpace=wrap;fillColor=#f8cecc;strokeColor=#b85450;" vertex="1" parent="WIyWlLk6GJQsqaUBKTNV-1">
          <mxGeometry x="620" y="370" width="100" height="60" as="geometry" />
        </mxCell>
        <mxCell id="vDQ_rxtfvv9CpdEsePrf-24" value="" style="edgeStyle=orthogonalEdgeStyle;rounded=0;orthogonalLoop=1;jettySize=auto;html=1;" edge="1" parent="WIyWlLk6GJQsqaUBKTNV-1" source="vDQ_rxtfvv9CpdEsePrf-21" target="vDQ_rxtfvv9CpdEsePrf-22">
          <mxGeometry relative="1" as="geometry" />
        </mxCell>
        <mxCell id="vDQ_rxtfvv9CpdEsePrf-21" value="Write data to save file." style="rounded=1;whiteSpace=wrap;html=1;absoluteArcSize=1;arcSize=14;strokeWidth=2;fillColor=#ffe6cc;strokeColor=#d79b00;" vertex="1" parent="WIyWlLk6GJQsqaUBKTNV-1">
          <mxGeometry x="620" y="175" width="100" height="50" as="geometry" />
        </mxCell>
        <mxCell id="vDQ_rxtfvv9CpdEsePrf-25" value="" style="edgeStyle=orthogonalEdgeStyle;rounded=0;orthogonalLoop=1;jettySize=auto;html=1;" edge="1" parent="WIyWlLk6GJQsqaUBKTNV-1" source="vDQ_rxtfvv9CpdEsePrf-22" target="vDQ_rxtfvv9CpdEsePrf-19">
          <mxGeometry relative="1" as="geometry" />
        </mxCell>
        <mxCell id="vDQ_rxtfvv9CpdEsePrf-22" value="Clear objects from memory." style="rounded=1;whiteSpace=wrap;html=1;absoluteArcSize=1;arcSize=14;strokeWidth=2;fillColor=#ffe6cc;strokeColor=#d79b00;" vertex="1" parent="WIyWlLk6GJQsqaUBKTNV-1">
          <mxGeometry x="620" y="270" width="100" height="60" as="geometry" />
        </mxCell>
        <mxCell id="vDQ_rxtfvv9CpdEsePrf-31" value="" style="edgeStyle=orthogonalEdgeStyle;rounded=0;orthogonalLoop=1;jettySize=auto;html=1;fillColor=#f8cecc;strokeColor=#b85450;" edge="1" parent="WIyWlLk6GJQsqaUBKTNV-1" source="vDQ_rxtfvv9CpdEsePrf-26" target="vDQ_rxtfvv9CpdEsePrf-30">
          <mxGeometry relative="1" as="geometry" />
        </mxCell>
        <mxCell id="vDQ_rxtfvv9CpdEsePrf-26" value="begin Game::getScore()" style="strokeWidth=2;html=1;shape=mxgraph.flowchart.start_1;whiteSpace=wrap;fillColor=#f8cecc;strokeColor=#b85450;" vertex="1" parent="WIyWlLk6GJQsqaUBKTNV-1">
          <mxGeometry x="92.5" y="380" width="125" height="60" as="geometry" />
        </mxCell>
        <mxCell id="vDQ_rxtfvv9CpdEsePrf-29" value="" style="edgeStyle=orthogonalEdgeStyle;rounded=0;orthogonalLoop=1;jettySize=auto;html=1;" edge="1" parent="WIyWlLk6GJQsqaUBKTNV-1" source="vDQ_rxtfvv9CpdEsePrf-27" target="vDQ_rxtfvv9CpdEsePrf-9">
          <mxGeometry relative="1" as="geometry" />
        </mxCell>
        <mxCell id="vDQ_rxtfvv9CpdEsePrf-27" value="Update timer." style="rounded=1;whiteSpace=wrap;html=1;absoluteArcSize=1;arcSize=14;strokeWidth=2;fillColor=#ffe6cc;strokeColor=#d79b00;" vertex="1" parent="WIyWlLk6GJQsqaUBKTNV-1">
          <mxGeometry x="364" y="470" width="100" height="50" as="geometry" />
        </mxCell>
        <mxCell id="vDQ_rxtfvv9CpdEsePrf-30" value="return this-&amp;gt;score" style="strokeWidth=2;html=1;shape=mxgraph.flowchart.start_1;whiteSpace=wrap;fillColor=#f8cecc;strokeColor=#b85450;" vertex="1" parent="WIyWlLk6GJQsqaUBKTNV-1">
          <mxGeometry x="105" y="480" width="100" height="60" as="geometry" />
        </mxCell>
      </root>
    </mxGraphModel>
  </diagram>
</mxfile>
